<svg width="22" height="23" viewBox="0 0 22 23" fill="none" xmlns="http://www.w3.org/2000/svg">
<path d="M17.875 19.4673H4.125C3.76049 19.4667 3.41107 19.3217 3.15333 19.064C2.89559 18.8062 2.75055 18.4568 2.75 18.0923V4.34229C2.75055 3.97778 2.89559 3.62836 3.15333 3.37062C3.41107 3.11287 3.76049 2.96783 4.125 2.96729H11V4.34229H4.125V18.0923H17.875V11.2173H19.25V18.0923C19.2495 18.4568 19.1044 18.8062 18.8467 19.064C18.5889 19.3217 18.2395 19.4667 17.875 19.4673Z" fill="#333333"/>
<path d="M13.75 1.59229V2.96729H18.2779L12.375 8.87016L13.3471 9.84229L19.25 3.93941V8.46729H20.625V1.59229H13.75Z" fill="#333333"/>
</svg>
