<svg xmlns="http://www.w3.org/2000/svg" width="388.671" height="46.719" viewBox="0 0 388.671 46.719"><defs><style>.a{fill:#e60012;}.b{fill:#d71618;}.c{fill:#fff;}</style></defs><path class="a" d="M102.2.5a48.689,48.689,0,0,1,1.171,11.063c0,1.617-.92,3.574-2.092,3.574a2.053,2.053,0,0,1-1.339-.6,8.946,8.946,0,0,0-5.021-1.872A4.624,4.624,0,0,0,90.9,14.8c-1.088,1.617-1.674,4.085-1.674,7.318,0,3.319.586,5.787,1.674,7.318a4.718,4.718,0,0,0,4.016,2.127,8.7,8.7,0,0,0,5.021-1.872,2.053,2.053,0,0,1,1.339-.6c1.171,0,2.092,1.872,2.092,3.574A53.938,53.938,0,0,1,102.2,43.73H61.7V.5h40.5" transform="translate(-10.072 -0.075)"/><path class="a" d="M46.523.5V34.029a50.705,50.705,0,0,0-12.97-1.7c-1.757,0-3.933.851-4.769,2.468a3.264,3.264,0,0,0,.669,3.574c.92,1.191,2.092,3.829,1.255,5.7-.837,1.787-3.431,2.723-7.447,2.723s-6.61-.936-7.447-2.723c-.92-1.872.251-4.51,1.255-5.7a3.439,3.439,0,0,0,.669-3.574c-.753-1.617-2.929-2.468-4.769-2.468A50.705,50.705,0,0,0,0,34.029V.5H46.523" transform="translate(0 -0.075)"/><g transform="translate(230.693 2.042)"><path d="M279.214,9.748a1.864,1.864,0,0,1-2.092-1.7,7.175,7.175,0,0,1,.167-1.106c-1.423-.17-1.59-.425-1.59-.766,0-.425.586-.681,1.171-.936l.335.425a2.77,2.77,0,0,0-.5.255.3.3,0,0,0-.084.17c0,.17.669.255.837.255a8.886,8.886,0,0,1,.418-1.362,8.628,8.628,0,0,1-1.422-.34l.084-.681a12.29,12.29,0,0,0,1.506.34c.251-.766.251-.851.5-1.7l.92.255a.083.083,0,0,1,.084.085c0,.085,0,.085-.084.085l-.167.085a6.333,6.333,0,0,0-.5,1.191h.586a1.828,1.828,0,0,0,.753-.085l-.167.681h-1.339a10.856,10.856,0,0,0-.418,1.362h.753a3.11,3.11,0,0,0,1-.085l-.251.681h-.586a4.023,4.023,0,0,1-1.088-.085c0,.17-.167.6-.167.851a1.243,1.243,0,0,0,1.339,1.191,1.506,1.506,0,0,0,1.59-1.362,1.985,1.985,0,0,0-.586-1.362l.669-.34a3.4,3.4,0,0,1,.669,1.787A2.317,2.317,0,0,1,279.214,9.748Z" transform="translate(-275.7 -2.43)"/><path d="M290.1,9.327l-.586-.681a3.247,3.247,0,0,0,1.757-.936,3.033,3.033,0,0,0,.586-1.787,2.151,2.151,0,0,0-1.172-1.872,3.041,3.041,0,0,0-1.088-.17,14.54,14.54,0,0,1-1,3.829c-.167.34-.5,1.191-1,1.191a1.234,1.234,0,0,1-.669-.255A2.634,2.634,0,0,1,286,6.519a3.353,3.353,0,0,1,.837-2.213A3.307,3.307,0,0,1,289.431,3.2a2.9,2.9,0,0,1,2.427,1.021,3,3,0,0,1,.669,1.872A3.117,3.117,0,0,1,290.1,9.327Zm-1.422-5.361a2.544,2.544,0,0,0-1.924,2.553c0,.681.418,1.447.753,1.447.251,0,.5-.511.586-.681a11.9,11.9,0,0,0,.837-3.319Z" transform="translate(-277.381 -2.519)"/><path d="M302.906,7.761a5.039,5.039,0,0,1-2.761,1.021l-.418-.851c3.347,0,3.347-1.872,3.347-2.042a1.454,1.454,0,0,0-1.59-1.362,6.511,6.511,0,0,0-2.092.511c-.669.17-1,.34-1.339.425-.084.17-.084.255-.167.255s-.084,0-.167-.17l-.418-.936c.92-.085,1.925-.34,2.092-.34a6.4,6.4,0,0,1,2.092-.425,2.144,2.144,0,0,1,2.343,2.042A2.671,2.671,0,0,1,302.906,7.761Zm-.251-4.085a5.486,5.486,0,0,0-.669-.766l.418-.34a5.442,5.442,0,0,1,.753.681Zm1.088-.17c-.251-.34-.5-.6-.586-.766l.418-.34a4.281,4.281,0,0,1,.669.766Z" transform="translate(-279.226 -2.4)"/><path d="M311.863,9.918a8.148,8.148,0,0,0-1.506-1.957,16.859,16.859,0,0,0-1.339-1.191c-.251-.17-.418-.34-.418-.6s.084-.34.418-.681l.92-.936A12.138,12.138,0,0,0,311.612,2.6l.669.425a.182.182,0,0,1,.167.17c0,.085,0,.085-.084.085s-.251.085-.335.085l-1.674,1.7-.669.681c-.167.17-.167.255-.167.34,0,.17.084.255.251.34A14.181,14.181,0,0,1,311.7,8.3a4.812,4.812,0,0,1,.837,1.106Z" transform="translate(-281.071 -2.43)"/><path d="M318.1,7.6l-.586.17a5.34,5.34,0,0,1-.418-2.3A9.162,9.162,0,0,1,317.435,3l.837.17c.084,0,.167,0,.167.17q0,.128-.251.255a4.383,4.383,0,0,0-.335,2.042c0,.255,0,.681.084.681l.084-.17c.084-.17.5-1.191.586-1.276l.335.511A6.616,6.616,0,0,0,318.1,7.6Zm3.347-4.17V4.787c0,1.787-.167,3.574-1.59,4.765l-.837-.511a2.13,2.13,0,0,0,1.088-1.106,5.946,5.946,0,0,0,.586-2.723,18.219,18.219,0,0,0-.167-2.127l.92.085c.084,0,.167,0,.167.085Z" transform="translate(-282.459 -2.489)"/><path d="M327.388,3.7a8.872,8.872,0,0,0-.586,3.234c0,.511.084.851.084,1.106a2.858,2.858,0,0,0,.251-.511c.084-.34.084-.34.167-.425l.418.34a11.1,11.1,0,0,0-.5,1.872l-.586.085a10.715,10.715,0,0,1-.335-2.553,16.512,16.512,0,0,1,.251-2.383,11.252,11.252,0,0,1,.251-1.276l.837.17c.084,0,.084,0,.084.085A.571.571,0,0,1,327.388,3.7Zm4.518,5.191a3.431,3.431,0,0,0-1.088-.681c.084.936-.586,1.191-1.255,1.191-.92,0-1.506-.425-1.506-1.021a1.03,1.03,0,0,1,.669-.851,3.92,3.92,0,0,1,1.088-.17h.251a12.921,12.921,0,0,1-.084-2.127,4.693,4.693,0,0,1-1.088.085h-.586V4.547c.167,0,.5.085.921.085a2.835,2.835,0,0,0,.753-.085V3.1l.921.085a.082.082,0,0,1,.084.085c0,.085,0,.085-.251.17a7.522,7.522,0,0,0-.167.851,8.529,8.529,0,0,0,1-.255v.681a5.191,5.191,0,0,1-1,.255v.681a11.02,11.02,0,0,0,.084,1.7,4.273,4.273,0,0,1,1.422.681Zm-2.259-1.021c-.5,0-.753.17-.753.34,0,.255.251.425.669.425a.559.559,0,0,0,.586-.34c.084-.085,0-.255,0-.425C329.982,7.951,329.814,7.865,329.647,7.865Z" transform="translate(-283.96 -2.504)"/><path d="M338.19,10.527a4.854,4.854,0,0,0-1.59-1.617l.5-.511a8.09,8.09,0,0,1,1.673,1.532Z" transform="translate(-285.642 -3.294)"/><path d="M350.327,9.153a6.383,6.383,0,0,1-2.678-2.383v.851a11.231,11.231,0,0,0,.084,2.213H346.9a18.814,18.814,0,0,0,.084-2.213v-.6a6.812,6.812,0,0,1-2.594,2.042l-.586-.6a5.782,5.782,0,0,0,2.929-2.383h-.5c-.335,0-1.422,0-2.259.085V5.323a20.049,20.049,0,0,0,2.259.085h.753V4.387h-.5a16.738,16.738,0,0,0-1.841.085V3.621a12.741,12.741,0,0,0,1.841.085h.5V2.6l.753.085c.084,0,.251,0,.251.085s-.084.085-.167.17v.681h.5a16.738,16.738,0,0,0,1.841-.085V4.3a13.333,13.333,0,0,0-1.841-.085h-.5V5.238h.837c.335,0,1.506,0,2.343-.085v.766a21.56,21.56,0,0,0-2.343-.085h-.418a4.558,4.558,0,0,0,2.845,2.3Z" transform="translate(-286.817 -2.43)"/><path d="M362.01,9.423a6.534,6.534,0,0,1-2.678-2.213v.255a22.657,22.657,0,0,0,.084,2.383h-.837c0-.255.084-.511.084-1.021V7.21a7.607,7.607,0,0,1-1.339,1.532,12.484,12.484,0,0,1-1.339.851l-.586-.681a3.494,3.494,0,0,0,1.757-.936A7.9,7.9,0,0,0,358.245,6.7h-.251a17.9,17.9,0,0,0-2.176.085V5.934c.753.085,1.841.085,2.176.085h.753V4.147h-.586a14.564,14.564,0,0,0-1.924.085V3.466a17.32,17.32,0,0,0,1.924.085h.586V2.7l.753.085c.167,0,.251,0,.251.085s-.084.085-.167.17v.511h.586a14.568,14.568,0,0,0,1.925-.085v.766c-.837-.085-1.841-.085-1.925-.085h-.586V5.934h.753a20.051,20.051,0,0,0,2.259-.085v.766c-.92-.085-2.092-.085-2.259-.085h-.251a5.278,5.278,0,0,0,2.845,2.213Zm-4.769-3.574a3.777,3.777,0,0,0-.669-1.276l.669-.34a3.725,3.725,0,0,1,.669,1.276Zm3.849-1.021a3.819,3.819,0,0,1-.5,1.021l-.669-.255a2.515,2.515,0,0,0,.586-1.447l.753.34a.181.181,0,0,1,.167.17C361.425,4.742,361.425,4.742,361.09,4.827Z" transform="translate(-288.711 -2.445)"/><path d="M372.79,6.1h-.335a5.564,5.564,0,0,0-1.423.511V8.061l-.837.085c0-.255.084-.681.084-1.191a3.452,3.452,0,0,0-1,.681,1.057,1.057,0,0,0-.335.681c0,.6.837.681,1.506.681a7.26,7.26,0,0,0,1.757-.255l-.251.851a3.446,3.446,0,0,0-.586.085h-.753c-1.422,0-1.757-.17-2.008-.425a1.377,1.377,0,0,1-.418-.936c0-1.021,1.255-1.787,2.008-2.127-.084-.17-.167-.511-.586-.511a1.742,1.742,0,0,0-1.088.6,4,4,0,0,0-.753,1.021l-.669-.34a9.339,9.339,0,0,0,1.674-2.3,6.655,6.655,0,0,1-1.255.085l-.084-.766h.753a2.816,2.816,0,0,0,.92-.085,4.386,4.386,0,0,0,.335-1.191l.837.17a.291.291,0,0,1,.167.085c0,.085,0,.085-.251.255a2.846,2.846,0,0,1-.251.511,15.9,15.9,0,0,0,1.674-.425l-.084.766c-.418.085-1.422.255-1.925.34-.167.34-.335.6-.418.766a2.44,2.44,0,0,1,.837-.17,1.164,1.164,0,0,1,.92.6c0,.085.084.17.084.255,1-.425,1.088-.425,1.422-.6l.5.681v.085C372.874,6.019,372.874,6.1,372.79,6.1Z" transform="translate(-290.621 -2.445)"/><path d="M378.706,4.627a3.015,3.015,0,0,1-.837.936l-.669-.425a2.593,2.593,0,0,0,1-1.106l.669.34.084.085C378.957,4.627,378.874,4.627,378.706,4.627Zm5.188,5.191a7.058,7.058,0,0,1-2.343-.511,2.186,2.186,0,0,1-.753-.425,7.074,7.074,0,0,1-2.928.936l-.586-.766a5.855,5.855,0,0,0,2.929-.6,4.431,4.431,0,0,1-.837-.936,2.846,2.846,0,0,1-1.339.681l-.586-.6a3.956,3.956,0,0,0,2.51-1.787l.669.255c.084,0,.084,0,.084.085s-.167.17-.251.17c-.084.085-.167.17-.167.255h1.255a5.14,5.14,0,0,0,1-.085l.335.425a8.594,8.594,0,0,1-1.506,1.532,7.41,7.41,0,0,0,2.845.6Zm-1.924-5.957V5.734c0,.425-.335.511-.418.6a1.608,1.608,0,0,1-.586.085l-.335-.766s.419.085.5.085c.167,0,.167-.085.167-.255V3.862h-.921a3,3,0,0,1-.669,1.872,2.757,2.757,0,0,1-1.088.766l-.586-.511a2.183,2.183,0,0,0,1.339-.936,2.245,2.245,0,0,0,.335-1.276,19.324,19.324,0,0,0-2.175.085V3.181c.92.085,2.175.085,2.259.085h.753V2.5l.921.085c.084,0,.167,0,.167.085s-.084.085-.251.17v.34h.753c.251,0,1.506,0,2.259-.085v.681C383.559,3.862,382.639,3.862,381.969,3.862Zm-1.924,3.4a2.176,2.176,0,0,0,.753.851,4.9,4.9,0,0,0,.92-.851Zm3.6-1.447a3.694,3.694,0,0,0-1.088-1.276l.5-.511a4.51,4.51,0,0,1,1.255,1.276Z" transform="translate(-292.27 -2.415)"/><path d="M394.606,9.493a2.861,2.861,0,0,1-1.088.085c-.753,0-1.339,0-1.339-.936V7.961c0-.085,0-.511-.418-.511a1.21,1.21,0,0,0-.837.6c-.167.255-1,1.362-1.171,1.532L389,9.153a21.294,21.294,0,0,0,3.263-3.915,9.852,9.852,0,0,1-2.426.6l-.167-.766a7.732,7.732,0,0,0,3.347-.766,3.208,3.208,0,0,0,.586.681,1.951,1.951,0,0,0-.586.6c-.335.425-.669.851-1.088,1.362a1.451,1.451,0,0,1,.5-.085c.251,0,.5.17.5.766,0,.085-.084.681-.084.766,0,.511.335.6.669.6a5.714,5.714,0,0,0,1.339-.255Zm-1.674-5.787a8.988,8.988,0,0,1-2.259-.34l.084-.766a5.262,5.262,0,0,0,.586.17c.586.085,1,.17,1.255.17h.418Z" transform="translate(-294.196 -2.43)"/><path d="M401.845,9.482c-.669,0-1.59-.34-1.59-1.106a1.14,1.14,0,0,1,1.255-1.021,1.793,1.793,0,0,1,1.171.511,2.246,2.246,0,0,1,.418.511,1.363,1.363,0,0,0,.586-1.106,1.276,1.276,0,0,0-.335-.936,1.3,1.3,0,0,0-1-.34,2.9,2.9,0,0,0-1.506.511A7.466,7.466,0,0,0,399.669,7.7L399,7.185a22.614,22.614,0,0,0,3.1-3.234c-.5.085-.753.17-1.255.255-.167,0-.753.085-.92.085l-.167-.766h.5a9.937,9.937,0,0,0,2.761-.425l.5.6a6.146,6.146,0,0,0-.837.766,13.037,13.037,0,0,0-1.088,1.191,2.444,2.444,0,0,1,1-.255,1.877,1.877,0,0,1,1.925,1.787A2.6,2.6,0,0,1,401.845,9.482Zm.251-1.276a.941.941,0,0,0-.669-.255c-.418,0-.586.255-.586.34,0,.34.5.425.92.425a2.923,2.923,0,0,0,.586-.085A.781.781,0,0,0,402.1,8.206Z" transform="translate(-295.828 -2.504)"/></g><g transform="translate(229.772 15.062)"><path class="a" d="M274.6,36.847h5.857V23.572h8.2V42.549h-5.774V48.42h11.547V17.7H274.6Z" transform="translate(-274.6 -17.7)"/><path class="a" d="M318.974,42.549H313.2V48.42h11.547V17.7h-5.774Z" transform="translate(-280.901 -17.7)"/><rect class="a" width="5.774" height="16.339" transform="translate(24.015)"/><path class="a" d="M423.887,30.975H406.231V17.7H386.4V36.847h5.857V23.572h8.2v7.4h-5.774v5.872h5.774v5.7h-5.774V48.42h11.547V36.847h17.655Z" transform="translate(-292.851 -17.7)"/><path class="a" d="M344.8,23.572h7.029V17.7H332v5.872h7.029V42.549H332V48.42h19.831V42.549H344.8Z" transform="translate(-283.97 -17.7)"/><path class="a" d="M370.258,17.7,352.1,36.166h8.033l5.774-5.872V48.42h5.774v-24l6.61-6.723Z" transform="translate(-287.252 -17.7)"/></g><g transform="translate(110.451 0.936)"><path d="M137.774,1.1H132V45.947h5.774v-24h15.982V16.077H137.774Z" transform="translate(-132 -1.1)"/><rect width="11.129" height="5.872" transform="translate(89.449)"/><rect width="5.774" height="26.721" transform="translate(26.943)"/><path d="M222.676,1.1H216.9V9.184H206.276V1.1h-5.857V9.184H195.9v5.872h4.519V27.821h5.857V15.056H216.9V31.905l-9.121,14.041h7.112l7.782-12V15.056h4.686V9.184h-4.686Z" transform="translate(-142.432 -1.1)"/><path d="M255.541,6.6V32.725l-5.272,8.169H241.4v5.872h12.133l7.782-12V6.6Z" transform="translate(-149.859 -1.92)"/><path d="M181.821,31.905,172.7,45.947h7.2l7.782-12V1.1h-5.857Z" transform="translate(-138.644 -1.1)"/></g><g transform="translate(348.173)"><rect class="b" width="40.499" height="23.572"/><g transform="translate(3.765 3.064)"><path class="c" d="M429.437,15.993V17.1h3.514v1.532h-2.678L432.7,21.61h-1.925l-2.008-2.553-1.841,2.553h-1.757l2.175-2.978H424.5V17.1h3.514V15.993H425V14.547h1.339l-.418-1.447h1.422l.5,1.447h1.674l.418-1.447h1.506l-.419,1.447h1.423v1.447Z" transform="translate(-421.237 -5.016)"/><path class="c" d="M458.013,5.972h-4.686v4.085h4.686V21.12H442.7V10.057h3.933V5.972H442.7V4.1h15.313Zm-13.3,13.105H456V16.95h-4.686V12.1h-2.678V16.95h-2.092V12.1h-1.925v6.978Zm6.694-9.02V5.972h-2.678v4.085ZM456,12.1h-2.678v2.808H456Z" transform="translate(-424.208 -3.675)"/><path class="c" d="M428.967,3.6v7.063h4.686V21.045h2.008V3.6Zm4.686,5.531h-3.012V7.94h3.012Zm0-2.808h-3.012V5.132h3.012ZM420.6,3.6V21.045h2.008V10.663h4.686V3.6Zm5.021,5.531h-3.012V7.94h3.012Zm0-2.808h-3.012V5.132h3.012Z" transform="translate(-420.6 -3.6)"/></g></g></svg>