<svg width="251" height="89" viewBox="0 0 251 89" fill="none" xmlns="http://www.w3.org/2000/svg">
<g clip-path="url(#clip0_16_1670)">
<path d="M159.838 27.09C158.595 25.742 158.595 23.7056 159.934 22.4149L168.337 14.1546C169.685 12.864 171.722 12.864 173.012 14.1546C174.303 15.4453 174.303 17.5391 172.965 18.8297L171.617 20.1778V49.2799C171.617 51.1251 170.125 52.5592 168.337 52.5592C166.549 52.5592 165.058 51.1156 165.058 49.2799V26.5929L164.513 27.1378C163.222 28.3807 161.129 28.3807 159.838 27.09ZM202.172 46.1441C202.22 47.9797 200.728 49.4807 198.94 49.4807H197.946C197.2 49.4807 195.91 48.9358 195.011 47.9415L190.336 43.515V50.7236C190.336 52.5114 188.845 54.0028 187.057 54.0028C185.269 54.0028 183.778 52.5114 183.778 50.7236V43.5628L178.252 48.3908C176.464 49.8344 174.724 49.8344 173.376 48.5916C172.028 47.3965 172.133 45.2072 173.376 43.8687L180.785 37.5492H175.957C174.169 37.5492 172.62 36.1056 172.62 34.2699C172.62 32.4343 174.16 30.9907 175.957 30.9907H183.768V29.6427C183.768 27.807 185.212 26.3634 187.047 26.3634C188.883 26.3634 190.326 27.807 190.326 29.6427V30.9907H197.889C199.734 30.9907 201.168 32.4821 201.168 34.2699C201.168 36.0578 199.724 37.5492 197.889 37.5492H193.462L199.581 42.8266C201.072 43.123 202.172 44.6144 202.172 46.1632V46.1441ZM198.137 11.2769V22.6157C198.137 24.4035 196.694 25.5986 194.858 25.7993C192.573 26.0479 184.265 26.2487 180.632 25.8949C178.787 25.742 177.353 24.4513 177.353 22.6157V11.2769C177.353 9.24054 178.949 7.94031 180.737 7.99767H194.868C196.713 7.99767 198.147 9.48911 198.147 11.2769H198.137ZM191.579 14.5562H183.921V19.432C186.158 19.6806 189.59 19.585 191.579 19.432V14.5562Z" stroke="#39B54A" stroke-width="10"/>
<path d="M230.232 9.33617V10.3783L243.215 10.4261C244.754 10.4261 245.997 11.6211 245.997 13.2082C245.997 14.7952 244.754 15.9903 243.215 16.0476H227.048L224.811 19.5755C227.651 19.5755 231.179 19.4225 233.569 19.2791C233.616 18.237 234.219 17.1853 235.165 16.6404C236.762 15.7991 238.645 16.3918 239.745 17.9311C240.242 18.6258 240.988 19.7699 241.982 21.3633C242.928 22.9025 242.431 25.0919 240.94 26.0384C239.592 26.8319 237.957 26.4877 236.915 25.3883C230.892 25.8376 221.293 26.0862 216.274 25.6368C214.629 25.5412 213.339 23.9446 213.539 22.2046C213.74 20.4646 215.232 19.2695 217.268 19.4225C217.364 19.4225 219.304 16.0381 219.304 16.0381H211.493C209.897 16.0381 208.654 14.7952 208.654 13.256C208.654 11.7167 209.897 10.3687 211.493 10.3687L223.138 10.4165V9.22144C223.138 7.38582 224.878 5.98999 226.723 5.98999C228.568 5.98999 230.251 7.43363 230.251 9.32661L230.232 9.33617ZM233.119 48.2857V46.6891L219.639 46.7369L217.048 52.2628C216.398 53.955 214.515 54.653 212.822 54.0028C211.13 53.3527 210.184 51.3642 210.929 49.7293C211.379 48.7828 213.023 45.3028 213.664 43.6584C214.61 41.4212 215.059 39.4804 215.059 37.5875V30.6752C215.059 28.8396 216.551 27.396 218.396 27.396H236.408C238.253 27.396 239.793 28.8874 239.793 30.7326V51.0295C239.793 52.6739 238.597 54.0602 237.058 54.3088H232.383C230.739 54.3088 229.352 52.9608 229.352 51.3259C229.352 49.6911 230.748 48.2952 232.383 48.2952H233.129L233.119 48.2857ZM233.119 41.4212V39.8246L221.532 39.8724C221.484 40.3696 221.379 40.8667 221.331 41.3639L233.119 41.4117V41.4212ZM221.781 34.509H233.119V33.0175H221.781V34.509Z" stroke="#39B54A" stroke-width="10"/>
<path d="M159.838 27.09C158.595 25.742 158.595 23.7056 159.934 22.4149L168.337 14.1546C169.685 12.864 171.722 12.864 173.012 14.1546C174.303 15.4453 174.303 17.5391 172.965 18.8297L171.617 20.1778V49.2799C171.617 51.1251 170.125 52.5592 168.337 52.5592C166.549 52.5592 165.058 51.1156 165.058 49.2799V26.5929L164.513 27.1378C163.222 28.3807 161.129 28.3807 159.838 27.09ZM202.172 46.1441C202.22 47.9797 200.728 49.4807 198.94 49.4807H197.946C197.2 49.4807 195.91 48.9358 195.011 47.9415L190.336 43.515V50.7236C190.336 52.5114 188.845 54.0028 187.057 54.0028C185.269 54.0028 183.778 52.5114 183.778 50.7236V43.5628L178.252 48.3908C176.464 49.8344 174.724 49.8344 173.376 48.5916C172.028 47.3965 172.133 45.2072 173.376 43.8687L180.785 37.5492H175.957C174.169 37.5492 172.62 36.1056 172.62 34.2699C172.62 32.4343 174.16 30.9907 175.957 30.9907H183.768V29.6427C183.768 27.807 185.212 26.3634 187.047 26.3634C188.883 26.3634 190.326 27.807 190.326 29.6427V30.9907H197.889C199.734 30.9907 201.168 32.4821 201.168 34.2699C201.168 36.0578 199.724 37.5492 197.889 37.5492H193.462L199.581 42.8266C201.072 43.123 202.172 44.6144 202.172 46.1632V46.1441ZM198.137 11.2769V22.6157C198.137 24.4035 196.694 25.5986 194.858 25.7993C192.573 26.0479 184.265 26.2487 180.632 25.8949C178.787 25.742 177.353 24.4513 177.353 22.6157V11.2769C177.353 9.24054 178.949 7.94031 180.737 7.99767H194.868C196.713 7.99767 198.147 9.48911 198.147 11.2769H198.137ZM191.579 14.5562H183.921V19.432C186.158 19.6806 189.59 19.585 191.579 19.432V14.5562Z" stroke="white" stroke-width="6" stroke-linejoin="round"/>
<path d="M230.232 9.33617V10.3783L243.215 10.4261C244.754 10.4261 245.997 11.6211 245.997 13.2082C245.997 14.7952 244.754 15.9903 243.215 16.0476H227.048L224.811 19.5755C227.651 19.5755 231.179 19.4225 233.569 19.2791C233.616 18.237 234.219 17.1853 235.165 16.6404C236.762 15.7991 238.645 16.3918 239.745 17.9311C240.242 18.6258 240.988 19.7699 241.982 21.3633C242.928 22.9025 242.431 25.0919 240.94 26.0384C239.592 26.8319 237.957 26.4877 236.915 25.3883C230.892 25.8376 221.293 26.0862 216.274 25.6368C214.629 25.5412 213.339 23.9446 213.539 22.2046C213.74 20.4646 215.232 19.2695 217.268 19.4225C217.364 19.4225 219.304 16.0381 219.304 16.0381H211.493C209.897 16.0381 208.654 14.7952 208.654 13.256C208.654 11.7167 209.897 10.3687 211.493 10.3687L223.138 10.4165V9.22144C223.138 7.38582 224.878 5.98999 226.723 5.98999C228.568 5.98999 230.251 7.43363 230.251 9.32661L230.232 9.33617ZM233.119 48.2857V46.6891L219.639 46.7369L217.048 52.2628C216.398 53.955 214.515 54.653 212.822 54.0028C211.13 53.3527 210.184 51.3642 210.929 49.7293C211.379 48.7828 213.023 45.3028 213.664 43.6584C214.61 41.4212 215.059 39.4804 215.059 37.5875V30.6752C215.059 28.8396 216.551 27.396 218.396 27.396H236.408C238.253 27.396 239.793 28.8874 239.793 30.7326V51.0295C239.793 52.6739 238.597 54.0602 237.058 54.3088H232.383C230.739 54.3088 229.352 52.9608 229.352 51.3259C229.352 49.6911 230.748 48.2952 232.383 48.2952H233.129L233.119 48.2857ZM233.119 41.4212V39.8246L221.532 39.8724C221.484 40.3696 221.379 40.8667 221.331 41.3639L233.119 41.4117V41.4212ZM221.781 34.509H233.119V33.0175H221.781V34.509Z" stroke="white" stroke-width="6" stroke-linejoin="round"/>
<path d="M159.838 27.09C158.595 25.742 158.595 23.7056 159.934 22.4149L168.337 14.1546C169.685 12.864 171.722 12.864 173.012 14.1546C174.303 15.4453 174.303 17.5391 172.965 18.8297L171.617 20.1778V49.2799C171.617 51.1251 170.125 52.5592 168.337 52.5592C166.549 52.5592 165.058 51.1156 165.058 49.2799V26.5929L164.513 27.1378C163.222 28.3807 161.129 28.3807 159.838 27.09ZM202.172 46.1441C202.22 47.9797 200.728 49.4807 198.94 49.4807H197.946C197.2 49.4807 195.91 48.9358 195.011 47.9415L190.336 43.515V50.7236C190.336 52.5114 188.845 54.0028 187.057 54.0028C185.269 54.0028 183.778 52.5114 183.778 50.7236V43.5628L178.252 48.3908C176.464 49.8344 174.724 49.8344 173.376 48.5916C172.028 47.3965 172.133 45.2072 173.376 43.8687L180.785 37.5492H175.957C174.169 37.5492 172.62 36.1056 172.62 34.2699C172.62 32.4343 174.16 30.9907 175.957 30.9907H183.768V29.6427C183.768 27.807 185.212 26.3634 187.047 26.3634C188.883 26.3634 190.326 27.807 190.326 29.6427V30.9907H197.889C199.734 30.9907 201.168 32.4821 201.168 34.2699C201.168 36.0578 199.724 37.5492 197.889 37.5492H193.462L199.581 42.8266C201.072 43.123 202.172 44.6144 202.172 46.1632V46.1441ZM198.137 11.2769V22.6157C198.137 24.4035 196.694 25.5986 194.858 25.7993C192.573 26.0479 184.265 26.2487 180.632 25.8949C178.787 25.742 177.353 24.4513 177.353 22.6157V11.2769C177.353 9.24054 178.949 7.94031 180.737 7.99767H194.868C196.713 7.99767 198.147 9.48911 198.147 11.2769H198.137ZM191.579 14.5562H183.921V19.432C186.158 19.6806 189.59 19.585 191.579 19.432V14.5562Z" fill="#39B54A"/>
<path d="M230.232 9.33617V10.3783L243.215 10.4261C244.754 10.4261 245.997 11.6211 245.997 13.2082C245.997 14.7952 244.754 15.9903 243.215 16.0476H227.048L224.811 19.5755C227.651 19.5755 231.179 19.4225 233.569 19.2791C233.616 18.237 234.219 17.1853 235.165 16.6404C236.762 15.7991 238.645 16.3918 239.745 17.9311C240.242 18.6258 240.988 19.7699 241.982 21.3633C242.928 22.9025 242.431 25.0919 240.94 26.0384C239.592 26.8319 237.957 26.4877 236.915 25.3883C230.892 25.8376 221.293 26.0862 216.274 25.6368C214.629 25.5412 213.339 23.9446 213.539 22.2046C213.74 20.4646 215.232 19.2695 217.268 19.4225C217.364 19.4225 219.304 16.0381 219.304 16.0381H211.493C209.897 16.0381 208.654 14.7952 208.654 13.256C208.654 11.7167 209.897 10.3687 211.493 10.3687L223.138 10.4165V9.22144C223.138 7.38582 224.878 5.98999 226.723 5.98999C228.568 5.98999 230.251 7.43363 230.251 9.32661L230.232 9.33617ZM233.119 48.2857V46.6891L219.639 46.7369L217.048 52.2628C216.398 53.955 214.515 54.653 212.822 54.0028C211.13 53.3527 210.184 51.3642 210.929 49.7293C211.379 48.7828 213.023 45.3028 213.664 43.6584C214.61 41.4212 215.059 39.4804 215.059 37.5875V30.6752C215.059 28.8396 216.551 27.396 218.396 27.396H236.408C238.253 27.396 239.793 28.8874 239.793 30.7326V51.0295C239.793 52.6739 238.597 54.0602 237.058 54.3088H232.383C230.739 54.3088 229.352 52.9608 229.352 51.3259C229.352 49.6911 230.748 48.2952 232.383 48.2952H233.129L233.119 48.2857ZM233.119 41.4212V39.8246L221.532 39.8724C221.484 40.3696 221.379 40.8667 221.331 41.3639L233.119 41.4117V41.4212ZM221.781 34.509H233.119V33.0175H221.781V34.509Z" fill="#39B54A"/>
<path d="M39.5955 41.0101C39.2035 42.5494 37.6547 43.5628 36.0772 43.209C35.1116 42.9892 34.3181 42.8171 33.3525 42.6354C32.5112 45.1403 31.5073 47.8746 29.9681 50.7332C29.2224 52.1864 27.3294 52.7122 25.9144 51.8804C24.509 51.0869 24.1935 49.3278 24.901 47.9224C26.0483 45.5896 26.88 43.6966 27.6736 41.5455C24.509 40.9336 21.4688 40.36 19.3081 40.1401C17.549 47.0524 15.1684 49.519 12.5297 49.519C9.22177 49.4999 6.19109 46.517 6.00944 42.3773C5.74175 36.6983 9.92925 34.0596 14.8529 34.0979C15.9524 30.1781 16.3539 26.9657 16.8797 22.5679H13.3997C11.8127 22.5679 10.4933 21.2486 10.4933 19.6615C10.4933 18.0745 11.8127 16.7551 13.5336 16.7551L19.8722 16.8029C21.9372 16.8029 23.2184 18.6959 22.9124 20.6271C22.3388 25.8663 21.507 30.7517 20.7135 34.5759C23.1801 34.8818 25.9909 35.2834 29.165 35.8953C29.5187 34.5281 29.6908 33.9162 29.8247 32.9506C29.9585 31.8512 30.6182 30.1303 32.9892 30.3502C34.5762 30.5223 35.8095 32.1953 35.5896 33.7824C35.4176 34.8818 35.1499 35.9813 34.8822 37.0425C35.8095 37.2146 36.5553 37.3102 37.387 37.5301C38.9741 37.8838 39.9397 39.4231 39.5859 41.0101H39.5955ZM13.5814 39.4709C11.9561 39.3848 10.8088 40.3983 10.8088 41.7176C10.8088 42.645 11.2964 43.3047 12.0421 43.2569C12.4819 43.2569 13.2276 41.23 13.5814 39.4709Z" stroke="#F7931E" stroke-width="10" stroke-linejoin="round"/>
<path d="M75.8203 42.9031C77.0918 44.2225 76.9197 46.2875 75.6004 47.6547C72.5601 50.7332 69.9214 52.3202 66.5752 52.368C61.3361 52.4541 59.0894 42.2434 56.6706 42.5111C55.8292 42.5111 54.0319 43.9643 52.311 45.8095L50.2841 50.303C49.6723 51.7562 47.9036 52.4636 46.4599 51.804C44.9589 51.1921 44.2993 49.4712 44.9589 47.9798L57.9421 18.3135C58.6018 16.8603 60.3227 16.1528 61.7663 16.8125C63.2673 17.4722 63.927 19.1931 63.2673 20.6367L55.877 37.358C56.8427 36.7462 57.6362 36.5167 58.3819 36.5645C62.1201 36.7844 64.9404 46.2015 66.6995 46.2875C68.2866 46.8612 70.3134 44.7865 71.757 43.2091C72.8087 42.0236 74.6634 41.7559 75.8107 42.9031H75.8203Z" stroke="#F7931E" stroke-width="10" stroke-linejoin="round"/>
<path d="M84.2622 40.4843C82.6751 40.2166 81.5757 38.7634 81.7956 37.1381L83.4209 26.8415H82.2354C80.6101 26.8415 79.2907 25.5699 79.329 23.9351C79.329 22.3098 80.6005 21.0287 82.2354 21.0287H84.2622L84.6542 17.9024C84.9219 16.2771 86.3751 15.1776 87.9525 15.4358C89.5778 15.6557 90.6773 17.1471 90.4192 18.7342L90.0654 21.0669H93.0101C94.5971 21.0669 95.9165 22.3863 95.9165 23.9733C95.9165 25.5604 94.5971 26.8797 92.9718 26.8797H89.2337L87.5606 38.0177C87.3407 39.6047 85.8492 40.7042 84.2622 40.4843ZM112.389 42.5111C112.169 44.0982 110.984 45.3315 109.129 45.0638C108.25 44.9299 106.223 44.4041 105.343 44.3181C105.343 45.0256 105.295 47.1767 105.295 47.1767C105.209 50.8766 103.049 53.4292 99.1288 53.4292C94.8648 53.3814 90.8111 48.4578 91.031 44.0121C91.2031 41.0197 93.1439 38.1993 98.0293 38.1133C98.4691 38.1133 98.9949 38.1611 99.4825 38.1611V32.53C99.4825 30.9047 100.802 29.6236 102.389 29.6236C103.976 29.6236 105.334 30.8951 105.334 32.53V38.5148C106.433 38.6487 108.412 39.0024 109.865 39.2606C111.624 39.6143 112.59 41.0675 112.37 42.5207L112.389 42.5111ZM99.4921 43.9165C98.9662 43.8305 98.6125 43.8305 98.1727 43.8305C97.4653 43.8783 96.9394 44.0504 96.8534 44.624C96.6813 46.2111 98.1249 47.5686 99.0141 47.5686C99.2339 47.5686 99.5016 47.3966 99.5016 46.8229C99.5494 46.0772 99.5016 44.7961 99.5016 43.9165H99.4921ZM101.251 21.8604L107.81 21.8126C109.435 21.8126 110.754 23.132 110.754 24.719C110.754 26.3061 109.435 27.6637 107.848 27.6637H101.242C99.6546 27.6637 98.3353 26.3921 98.3353 24.7573C98.3353 23.1224 99.6068 21.8509 101.242 21.8509L101.251 21.8604Z" stroke="#F7931E" stroke-width="10" stroke-linejoin="round"/>
<path d="M145.086 33.4C145.172 28.5624 141.568 24.9102 135.975 24.9963C128.929 25.1301 125.277 29.6618 125.191 34.6333C125.143 37.4919 126.032 39.6047 127.39 39.7386C128.891 39.8246 130.822 36.2586 132.141 29.8817C132.447 28.2947 133.68 27.243 135.267 27.4151C136.941 27.635 138.212 29.0882 137.868 30.6752C136.855 35.7805 133.948 45.9434 127.265 45.9912C123.432 45.9912 119.56 41.4977 119.693 34.4994C119.866 26.0957 126.864 19.7954 135.889 19.6233C145.66 19.4894 150.813 26.7554 150.813 33.486C150.813 39.251 148.088 45.2359 141.396 50.6471C140.162 51.6605 137.964 51.4884 136.95 50.2551C136.109 49.2417 136.204 47.4348 137.61 46.1632C142.581 41.7654 145.048 38.5913 145.096 33.4H145.086Z" stroke="#F7931E" stroke-width="10" stroke-linejoin="round"/>
<path d="M39.5955 41.0101C39.2035 42.5494 37.6547 43.5628 36.0772 43.209C35.1116 42.9892 34.3181 42.8171 33.3525 42.6354C32.5112 45.1403 31.5073 47.8746 29.9681 50.7332C29.2224 52.1864 27.3294 52.7122 25.9144 51.8804C24.509 51.0869 24.1935 49.3278 24.901 47.9224C26.0483 45.5896 26.88 43.6966 27.6736 41.5455C24.509 40.9336 21.4688 40.36 19.3081 40.1401C17.549 47.0524 15.1684 49.519 12.5297 49.519C9.22177 49.4999 6.19109 46.517 6.00944 42.3773C5.74175 36.6983 9.92925 34.0596 14.8529 34.0979C15.9524 30.1781 16.3539 26.9657 16.8797 22.5679H13.3997C11.8127 22.5679 10.4933 21.2486 10.4933 19.6615C10.4933 18.0745 11.8127 16.7551 13.5336 16.7551L19.8722 16.8029C21.9372 16.8029 23.2184 18.6959 22.9124 20.6271C22.3388 25.8663 21.507 30.7517 20.7135 34.5759C23.1801 34.8818 25.9909 35.2834 29.165 35.8953C29.5187 34.5281 29.6908 33.9162 29.8247 32.9506C29.9585 31.8512 30.6182 30.1303 32.9892 30.3502C34.5762 30.5223 35.8095 32.1953 35.5896 33.7824C35.4176 34.8818 35.1499 35.9813 34.8822 37.0425C35.8095 37.2146 36.5553 37.3102 37.387 37.5301C38.9741 37.8838 39.9397 39.4231 39.5859 41.0101H39.5955ZM13.5814 39.4709C11.9561 39.3848 10.8088 40.3983 10.8088 41.7176C10.8088 42.645 11.2964 43.3047 12.0421 43.2569C12.4819 43.2569 13.2276 41.23 13.5814 39.4709Z" stroke="white" stroke-width="6" stroke-linejoin="round"/>
<path d="M75.8203 42.9031C77.0918 44.2225 76.9197 46.2875 75.6004 47.6547C72.5601 50.7332 69.9214 52.3202 66.5752 52.368C61.3361 52.4541 59.0894 42.2434 56.6706 42.5111C55.8292 42.5111 54.0319 43.9643 52.311 45.8095L50.2841 50.303C49.6723 51.7562 47.9036 52.4636 46.4599 51.804C44.9589 51.1921 44.2993 49.4712 44.9589 47.9798L57.9421 18.3135C58.6018 16.8603 60.3227 16.1528 61.7663 16.8125C63.2673 17.4722 63.927 19.1931 63.2673 20.6367L55.877 37.358C56.8427 36.7462 57.6362 36.5167 58.3819 36.5645C62.1201 36.7844 64.9404 46.2015 66.6995 46.2875C68.2866 46.8612 70.3134 44.7865 71.757 43.2091C72.8087 42.0236 74.6634 41.7559 75.8107 42.9031H75.8203Z" stroke="white" stroke-width="6" stroke-linejoin="round"/>
<path d="M84.2622 40.4843C82.6751 40.2166 81.5757 38.7634 81.7956 37.1381L83.4209 26.8415H82.2354C80.6101 26.8415 79.2907 25.5699 79.329 23.9351C79.329 22.3098 80.6005 21.0287 82.2354 21.0287H84.2622L84.6542 17.9024C84.9219 16.2771 86.3751 15.1776 87.9525 15.4358C89.5778 15.6557 90.6773 17.1471 90.4192 18.7342L90.0654 21.0669H93.0101C94.5971 21.0669 95.9165 22.3863 95.9165 23.9733C95.9165 25.5604 94.5971 26.8797 92.9718 26.8797H89.2337L87.5606 38.0177C87.3407 39.6047 85.8492 40.7042 84.2622 40.4843ZM112.389 42.5111C112.169 44.0982 110.984 45.3315 109.129 45.0638C108.25 44.9299 106.223 44.4041 105.343 44.3181C105.343 45.0256 105.295 47.1767 105.295 47.1767C105.209 50.8766 103.049 53.4292 99.1288 53.4292C94.8648 53.3814 90.8111 48.4578 91.031 44.0121C91.2031 41.0197 93.1439 38.1993 98.0293 38.1133C98.4691 38.1133 98.9949 38.1611 99.4825 38.1611V32.53C99.4825 30.9047 100.802 29.6236 102.389 29.6236C103.976 29.6236 105.334 30.8951 105.334 32.53V38.5148C106.433 38.6487 108.412 39.0024 109.865 39.2606C111.624 39.6143 112.59 41.0675 112.37 42.5207L112.389 42.5111ZM99.4921 43.9165C98.9662 43.8305 98.6125 43.8305 98.1727 43.8305C97.4653 43.8783 96.9394 44.0504 96.8534 44.624C96.6813 46.2111 98.1249 47.5686 99.0141 47.5686C99.2339 47.5686 99.5016 47.3966 99.5016 46.8229C99.5494 46.0772 99.5016 44.7961 99.5016 43.9165H99.4921ZM101.251 21.8604L107.81 21.8126C109.435 21.8126 110.754 23.132 110.754 24.719C110.754 26.3061 109.435 27.6637 107.848 27.6637H101.242C99.6546 27.6637 98.3353 26.3921 98.3353 24.7573C98.3353 23.1224 99.6068 21.8509 101.242 21.8509L101.251 21.8604Z" stroke="white" stroke-width="6" stroke-linejoin="round"/>
<path d="M145.086 33.4C145.172 28.5624 141.568 24.9102 135.975 24.9963C128.929 25.1301 125.277 29.6618 125.191 34.6333C125.143 37.4919 126.032 39.6047 127.39 39.7386C128.891 39.8246 130.822 36.2586 132.141 29.8817C132.447 28.2947 133.68 27.243 135.267 27.4151C136.941 27.635 138.212 29.0882 137.868 30.6752C136.855 35.7805 133.948 45.9434 127.265 45.9912C123.432 45.9912 119.56 41.4977 119.693 34.4994C119.866 26.0957 126.864 19.7954 135.889 19.6233C145.66 19.4894 150.813 26.7554 150.813 33.486C150.813 39.251 148.088 45.2359 141.396 50.6471C140.162 51.6605 137.964 51.4884 136.95 50.2551C136.109 49.2417 136.204 47.4348 137.61 46.1632C142.581 41.7654 145.048 38.5913 145.096 33.4H145.086Z" stroke="white" stroke-width="6" stroke-linejoin="round"/>
<path d="M39.5955 41.0101C39.2035 42.5494 37.6547 43.5628 36.0772 43.209C35.1116 42.9892 34.3181 42.8171 33.3525 42.6354C32.5112 45.1403 31.5073 47.8746 29.9681 50.7332C29.2224 52.1864 27.3294 52.7122 25.9144 51.8804C24.509 51.0869 24.1935 49.3278 24.901 47.9224C26.0483 45.5896 26.88 43.6966 27.6735 41.5455C24.509 40.9336 21.4688 40.36 19.3081 40.1401C17.549 47.0524 15.1684 49.519 12.5297 49.519C9.22177 49.4999 6.19109 46.517 6.00944 42.3773C5.74175 36.6983 9.92925 34.0596 14.8529 34.0979C15.9524 30.1781 16.3539 26.9657 16.8797 22.5679H13.3997C11.8127 22.5679 10.4933 21.2486 10.4933 19.6615C10.4933 18.0745 11.8127 16.7551 13.5336 16.7551L19.8722 16.8029C21.9372 16.8029 23.2184 18.6959 22.9124 20.6271C22.3388 25.8663 21.507 30.7517 20.7135 34.5759C23.1801 34.8818 25.9909 35.2834 29.165 35.8953C29.5187 34.5281 29.6908 33.9162 29.8247 32.9506C29.9585 31.8512 30.6182 30.1303 32.9892 30.3502C34.5762 30.5223 35.8095 32.1953 35.5896 33.7824C35.4176 34.8818 35.1499 35.9813 34.8822 37.0425C35.8095 37.2146 36.5553 37.3102 37.387 37.5301C38.9741 37.8838 39.9397 39.4231 39.5859 41.0101H39.5955ZM13.5814 39.4709C11.9561 39.3848 10.8088 40.3983 10.8088 41.7176C10.8088 42.645 11.2964 43.3047 12.0421 43.2569C12.4819 43.2569 13.2276 41.23 13.5814 39.4709Z" fill="#F7931E"/>
<path d="M75.8203 42.9031C77.0918 44.2225 76.9197 46.2875 75.6004 47.6547C72.5601 50.7332 69.9214 52.3202 66.5753 52.368C61.3361 52.4541 59.0894 42.2434 56.6706 42.5111C55.8292 42.5111 54.0319 43.9643 52.311 45.8095L50.2841 50.303C49.6723 51.7562 47.9036 52.4636 46.4599 51.804C44.9589 51.1921 44.2993 49.4712 44.9589 47.9798L57.9421 18.3135C58.6018 16.8603 60.3227 16.1528 61.7663 16.8125C63.2673 17.4722 63.927 19.1931 63.2673 20.6367L55.877 37.358C56.8427 36.7462 57.6362 36.5167 58.3819 36.5645C62.1201 36.7844 64.9404 46.2015 66.6995 46.2875C68.2866 46.8612 70.3134 44.7865 71.757 43.2091C72.8087 42.0236 74.6634 41.7559 75.8107 42.9031H75.8203Z" fill="#F7931E"/>
<path d="M84.2622 40.4843C82.6751 40.2166 81.5757 38.7634 81.7956 37.1381L83.4209 26.8415H82.2354C80.6101 26.8415 79.2907 25.5699 79.329 23.9351C79.329 22.3098 80.6005 21.0287 82.2354 21.0287H84.2622L84.6542 17.9024C84.9219 16.2771 86.3751 15.1776 87.9525 15.4358C89.5778 15.6557 90.6773 17.1471 90.4192 18.7342L90.0654 21.0669H93.0101C94.5971 21.0669 95.9165 22.3863 95.9165 23.9733C95.9165 25.5604 94.5971 26.8797 92.9718 26.8797H89.2337L87.5606 38.0177C87.3407 39.6047 85.8492 40.7042 84.2622 40.4843ZM112.389 42.5111C112.169 44.0982 110.984 45.3315 109.129 45.0638C108.25 44.9299 106.223 44.4041 105.343 44.3181C105.343 45.0256 105.295 47.1767 105.295 47.1767C105.209 50.8766 103.049 53.4292 99.1288 53.4292C94.8648 53.3814 90.8111 48.4578 91.031 44.0121C91.2031 41.0197 93.1439 38.1993 98.0293 38.1133C98.4691 38.1133 98.9949 38.1611 99.4825 38.1611V32.53C99.4825 30.9047 100.802 29.6236 102.389 29.6236C103.976 29.6236 105.334 30.8951 105.334 32.53V38.5148C106.433 38.6487 108.412 39.0024 109.865 39.2606C111.624 39.6143 112.59 41.0675 112.37 42.5207L112.389 42.5111ZM99.4921 43.9165C98.9662 43.8305 98.6125 43.8305 98.1727 43.8305C97.4653 43.8783 96.9394 44.0504 96.8534 44.624C96.6813 46.2111 98.1249 47.5686 99.0141 47.5686C99.2339 47.5686 99.5016 47.3966 99.5016 46.8229C99.5494 46.0772 99.5016 44.7961 99.5016 43.9165H99.4921ZM101.251 21.8604L107.81 21.8126C109.435 21.8126 110.754 23.132 110.754 24.719C110.754 26.3061 109.435 27.6637 107.848 27.6637H101.242C99.6546 27.6637 98.3353 26.3921 98.3353 24.7573C98.3353 23.1224 99.6068 21.8509 101.242 21.8509L101.251 21.8604Z" fill="#F7931E"/>
<path d="M145.086 33.4C145.172 28.5624 141.568 24.9102 135.975 24.9963C128.929 25.1301 125.277 29.6618 125.191 34.6333C125.143 37.4919 126.032 39.6047 127.39 39.7386C128.891 39.8246 130.822 36.2586 132.141 29.8817C132.447 28.2947 133.68 27.243 135.267 27.4151C136.941 27.635 138.212 29.0882 137.868 30.6752C136.855 35.7805 133.948 45.9434 127.265 45.9912C123.432 45.9912 119.56 41.4977 119.693 34.4994C119.866 26.0957 126.864 19.7954 135.889 19.6233C145.66 19.4894 150.813 26.7554 150.813 33.486C150.813 39.251 148.088 45.2359 141.396 50.6471C140.162 51.6605 137.964 51.4884 136.95 50.2551C136.109 49.2417 136.204 47.4348 137.61 46.1632C142.581 41.7654 145.048 38.5913 145.096 33.4H145.086Z" fill="#F7931E"/>
<path d="M38.0084 78.8028C37.865 79.0227 37.7312 79.2426 37.5878 79.4625C37.3297 79.864 36.9664 80.0266 36.6222 80.0266C36.0581 80.0266 35.561 79.6059 35.561 79.0227C35.561 78.8028 35.6183 78.5829 35.7809 78.3439C37.0906 76.3744 38.2092 73.4872 38.8307 70.7529C38.9549 70.2366 39.433 69.9689 39.911 69.9689C40.4942 69.9689 41.0774 70.3322 41.0774 70.9919C41.0774 71.0684 41.0583 71.1735 41.0391 71.2691C40.6567 72.8944 40.0353 74.6631 39.2896 76.3075C39.7485 76.3649 40.15 76.6517 40.15 77.1106V87.7706C40.15 88.3155 39.6051 88.5736 39.0888 88.5736C38.5725 88.5736 38.0084 88.3155 38.0084 87.7706V78.8028ZM48.5632 85.7915V87.675C48.5632 88.2581 48.0374 88.5354 47.502 88.5354C46.9666 88.5354 46.4408 88.2581 46.4408 87.675V85.7915L46.5173 83.1433C45.3509 84.5869 43.8882 85.9349 42.4063 86.8814C42.1864 87.0248 41.9665 87.0822 41.7657 87.0822C41.2017 87.0822 40.7619 86.6042 40.7619 86.0784C40.7619 85.7724 40.9244 85.4569 41.3068 85.237C42.8174 84.3288 44.414 82.9329 45.5804 81.3841H42.1864C41.6892 81.3841 41.4215 80.9061 41.4215 80.4377C41.4215 79.9692 41.6797 79.4912 42.1864 79.4912H46.4408V78.5256C46.4408 77.9615 46.9858 77.6842 47.502 77.6842C48.0183 77.6842 48.5632 77.9615 48.5632 78.5256V79.4912H53.0758C53.6016 79.4912 53.8598 79.9501 53.8598 80.4377C53.8598 80.9252 53.6016 81.3841 53.0758 81.3841H49.3663C50.5518 82.6653 52.2154 83.9177 53.8215 84.7972C54.2804 85.0554 54.4621 85.4187 54.4621 85.782C54.4621 86.3269 54.0223 86.8432 53.4391 86.8432C53.2575 86.8432 53.0567 86.7858 52.8559 86.6615C51.1924 85.6959 49.6627 84.3957 48.4772 83.0286L48.5537 85.8011L48.5632 85.7915ZM45.0545 77.2636C43.4101 77.2636 42.6835 76.5848 42.6835 75.1985V72.6458C42.6835 71.2596 43.4101 70.5808 45.0545 70.5808H50.0738C51.7182 70.5808 52.4448 71.2596 52.4448 72.6458V75.1985C52.4066 76.7855 51.5174 77.2444 50.0738 77.2636H45.0545ZM49.6723 75.4088C50.179 75.4088 50.3128 75.2654 50.3128 74.73V73.1047C50.3128 72.5598 50.1694 72.426 49.6723 72.426H45.4561C44.9589 72.426 44.8155 72.5694 44.8155 72.9709V74.8734C44.8155 75.3323 45.0354 75.4184 45.4561 75.4184H49.6723V75.4088Z" stroke="#F7931E" stroke-width="0.4"/>
<path d="M64.0895 70.4947C64.0895 69.9115 64.6345 69.6343 65.1985 69.6343C65.7626 69.6343 66.2789 69.9115 66.2789 70.4947V71.5559H73.5066C73.9846 71.5559 74.2332 71.9766 74.2332 72.4164C74.2332 72.8562 73.9942 73.2768 73.5066 73.2768H69.453C70.5811 74.0608 71.7188 74.9977 72.6271 75.906C72.8852 76.1641 72.9904 76.4509 72.9904 76.7091C72.9904 77.254 72.5314 77.6938 71.9865 77.6938C71.7284 77.6938 71.4224 77.5886 71.1643 77.3114C70.8201 76.9672 70.4186 76.5657 69.9979 76.1832C66.0877 76.7091 61.7472 77.0054 57.9326 77.0628C57.3302 77.0819 57.0339 76.6039 57.0339 76.1354C57.0339 75.667 57.3111 75.2559 57.8943 75.2559C58.9173 75.2559 59.9785 75.2367 61.0302 75.1985C61.4508 74.5771 61.8141 73.9365 62.1583 73.2673H57.0147C56.5367 73.2673 56.269 72.8275 56.269 72.4068C56.269 71.9862 56.5272 71.5464 57.0147 71.5464H64.0991V70.4852L64.0895 70.4947ZM68.5256 77.799C70.5524 77.799 71.279 78.4204 71.279 79.9309V86.3174C71.279 87.8662 70.5524 88.5641 68.9463 88.5641C68.5638 88.5641 68.038 88.545 67.6173 88.5067C66.9959 88.4302 66.7187 87.9904 66.7187 87.522C66.7187 86.9962 67.1011 86.4608 67.7799 86.5373C68.1049 86.5755 68.4204 86.5946 68.6594 86.5946C68.9654 86.5946 69.1183 86.4703 69.1183 86.0305V85.1032H61.5464V87.8949C61.5464 88.4111 61.0015 88.6979 60.4852 88.6979C59.9689 88.6979 59.4049 88.4207 59.4049 87.8949V79.9214C59.4049 78.4204 60.1506 77.7894 62.1583 77.7894H68.5256V77.799ZM62.4356 79.5294C61.709 79.5294 61.556 79.6728 61.556 80.17V80.6958H69.1279V80.17C69.1279 79.6633 68.9654 79.5294 68.2483 79.5294H62.4451H62.4356ZM69.1279 82.3019H61.556V83.5066H69.1279V82.3019ZM64.4241 73.2864C64.0991 73.9078 63.7645 74.5101 63.382 75.1125C65.0456 75.0073 66.6995 74.8926 68.3439 74.7492C68.2005 74.6249 68.0667 74.5293 67.9233 74.4241C67.6843 74.2424 67.56 74.0226 67.56 73.8027C67.56 73.621 67.6365 73.4202 67.7799 73.2864H64.4241Z" stroke="#F7931E" stroke-width="0.4"/>
<path d="M93.4785 76.9003C94.0617 76.9003 94.3581 77.4165 94.3581 77.9424C94.3581 78.4682 94.0521 78.9844 93.4785 78.9844H86.4133V85.3709H92.6946C93.2777 85.3709 93.5741 85.8967 93.5741 86.413C93.5741 86.9292 93.2777 87.4551 92.6946 87.4551H78.1052C77.5412 87.4551 77.2448 86.9388 77.2448 86.413C77.2448 85.8871 77.5412 85.3709 78.1052 85.3709H84.1283V78.9844H77.1874C76.6233 78.9844 76.327 78.4586 76.327 77.9424C76.327 77.4261 76.6329 76.9003 77.1874 76.9003H84.1283V71.1544C84.1283 70.5521 84.7115 70.2557 85.2756 70.2557C85.8397 70.2557 86.4229 70.5616 86.4229 71.1544V76.9003H93.4881H93.4785Z" stroke="#F7931E" stroke-width="0.4"/>
<path d="M99.6068 76.8333C99.8458 77.1106 99.951 77.3783 99.951 77.6364C99.951 78.2387 99.406 78.7167 98.8515 78.7167C98.5742 78.7167 98.2874 78.5925 98.0675 78.3534C97.5895 77.8276 96.882 77.1871 96.4422 76.8238C96.165 76.5848 96.0407 76.3266 96.0407 76.0589C96.0407 75.5331 96.557 75.0551 97.1689 75.0551C97.3887 75.0551 97.6469 75.1316 97.8668 75.2941C98.4691 75.7148 99.1479 76.2979 99.6163 76.8238L99.6068 76.8333ZM99.7597 80.648C100.343 80.648 100.926 81.0304 100.926 81.6518C100.926 81.7283 100.907 81.8335 100.888 81.9291C100.41 83.8125 99.5685 85.9636 98.7846 87.3499C98.5073 87.8279 98.0771 88.0287 97.6756 88.0287C97.1115 88.0287 96.5761 87.6271 96.5761 87.0439C96.5761 86.8623 96.6335 86.6615 96.7577 86.4416C97.5226 85.0936 98.2587 83.1528 98.7463 81.3841C98.9089 80.8583 99.3295 80.6384 99.7693 80.6384L99.7597 80.648ZM100.869 72.0053C101.089 72.2634 101.194 72.5502 101.194 72.7892C101.194 73.3915 100.668 73.8505 100.113 73.8505C99.8362 73.8505 99.5494 73.7262 99.3104 73.4489C98.8324 72.9422 98.2301 72.3399 97.7807 71.967C97.5035 71.728 97.3792 71.4699 97.3792 71.2213C97.3792 70.6955 97.905 70.2557 98.4786 70.2557C98.7368 70.2557 98.9853 70.3131 99.2244 70.4947C99.7884 70.9154 100.41 71.4794 100.869 72.0053ZM104.626 77.6364C104.626 81.4319 103.804 84.7016 102.456 87.0535C102.179 87.5315 101.777 87.7323 101.375 87.7323C100.859 87.7323 100.372 87.3499 100.372 86.7667C100.372 86.5468 100.429 86.3269 100.572 86.0592C101.834 83.889 102.542 81.1642 102.542 77.4261V72.5311C102.542 71.9479 103.058 71.6515 103.584 71.6515C103.88 71.6515 104.186 71.7567 104.387 71.9479C106.758 71.5273 109.043 70.9441 110.726 70.3035C110.869 70.2461 111.003 70.227 111.127 70.227C111.749 70.227 112.188 70.8102 112.188 71.3552C112.188 71.7376 111.988 72.1009 111.51 72.2538C109.626 72.9135 106.997 73.5541 104.626 73.9365V75.667C107.131 75.2845 109.942 74.6631 111.949 74.0034C112.074 73.9652 112.208 73.9461 112.313 73.9461C112.934 73.9461 113.355 74.491 113.355 75.0073C113.355 75.3706 113.135 75.7339 112.628 75.8868C112.169 76.0302 111.682 76.1641 111.185 76.2884C111.29 77.1488 111.404 77.9997 111.586 78.841C112.007 78.5638 112.447 78.2196 112.896 77.8563C113.097 77.6747 113.317 77.6173 113.536 77.6173C114.081 77.6173 114.54 78.0762 114.54 78.602C114.54 78.8793 114.397 79.1661 114.101 79.4051C113.441 79.9023 112.772 80.3707 112.074 80.7723C112.619 82.5792 113.355 84.1854 114.282 85.5334C114.502 85.8393 114.588 86.1166 114.588 86.3747C114.588 87.0153 114.043 87.455 113.46 87.455C113.097 87.455 112.714 87.2734 112.456 86.8527C110.85 84.2427 109.722 80.648 109.301 76.7377C108.938 76.8333 108.555 76.9003 108.173 76.9767V87.4933C108.173 88.0765 107.647 88.3537 107.112 88.3537C106.576 88.3537 106.051 88.0765 106.051 87.4933V77.3783C105.573 77.4548 105.104 77.5408 104.626 77.5982V77.6364Z" stroke="#F7931E" stroke-width="0.4"/>
<path d="M120.764 84.281C122.007 85.5238 123.957 86.0019 128.527 86.0019C130.64 86.0019 132.399 85.9445 133.929 85.782C134.675 85.7246 135.028 86.26 135.028 86.805C135.028 87.3117 134.732 87.8088 134.063 87.8471C132.476 87.9713 130.707 88.0287 128.585 88.0287C123.623 88.0287 121.462 87.4455 119.913 85.9828C119.254 86.7094 118.489 87.4646 117.743 88.0287C117.504 88.1912 117.284 88.2677 117.045 88.2677C116.462 88.2677 115.984 87.7897 115.984 87.2447C115.984 86.9197 116.146 86.5851 116.567 86.2983C117.265 85.8011 118.011 85.151 118.651 84.4722V80.7436C118.651 80.3803 118.594 80.2656 118.068 80.2656H117.103C116.519 80.2656 116.223 79.7589 116.223 79.2808C116.223 78.8028 116.529 78.2961 117.103 78.2961H118.546C120.133 78.2961 120.755 79.0036 120.755 80.4281V84.281H120.764ZM120.525 72.7223C120.745 72.9805 120.85 73.2673 120.85 73.5063C120.85 74.1277 120.286 74.6344 119.703 74.6344C119.407 74.6344 119.082 74.491 118.823 74.1755C118.403 73.6497 117.982 73.229 117.418 72.751C117.141 72.512 117.036 72.2252 117.036 71.9671C117.036 71.4221 117.514 70.9441 118.145 70.9441C118.384 70.9441 118.642 71.0206 118.909 71.2022C119.55 71.6611 120.095 72.2061 120.535 72.7319L120.525 72.7223ZM124.435 74.3667C123.011 74.3667 122.504 73.927 122.504 72.9996V72.273C122.504 71.3552 123.011 70.9058 124.435 70.9058H126.443V70.5234C126.443 69.9785 126.969 69.7203 127.466 69.7203C127.963 69.7203 128.489 69.9785 128.489 70.5234V70.9058H130.803C132.227 70.9058 132.734 71.3456 132.734 72.273V72.9996C132.734 73.927 132.227 74.3667 130.803 74.3667H128.489V74.9882H134.254C134.675 74.9882 134.895 75.3706 134.895 75.753C134.895 76.1354 134.675 76.5179 134.254 76.5179H121.367C120.946 76.5179 120.745 76.1354 120.745 75.753C120.745 75.3706 120.946 74.9882 121.367 74.9882H126.443V74.3667H124.435ZM124.942 80.734V81.4798H130.822C132.39 81.4798 132.83 81.9004 132.83 82.8278V83.7934C132.83 84.7208 132.285 85.1797 130.822 85.1797H125C123.432 85.1797 122.887 84.673 122.887 83.6118V78.7168C122.887 77.6556 123.432 77.1488 125 77.1488H129.981C131.548 77.1488 131.988 77.5695 131.988 78.4969V79.4051C131.969 80.6289 130.984 80.7245 129.981 80.7532H124.942V80.734ZM126.443 73.0665V72.2252H124.913C124.55 72.2252 124.474 72.2825 124.474 72.4642V72.8275C124.474 73.0665 124.713 73.0665 124.913 73.0665H126.443ZM129.512 79.3669C129.895 79.3669 129.971 79.3095 129.971 79.1088V78.7646C129.971 78.5638 129.895 78.5064 129.512 78.5064H125.401C125.038 78.5064 124.942 78.602 124.942 78.8506V79.3764H129.522L129.512 79.3669ZM124.942 82.8374V83.4205C124.942 83.6596 125.038 83.7647 125.401 83.7647H130.315C130.698 83.7647 130.774 83.7074 130.774 83.5066V83.105C130.774 82.8469 130.516 82.8469 130.315 82.8469H124.933L124.942 82.8374ZM128.489 73.0665H130.315C130.678 73.0665 130.755 73.0092 130.755 72.8275V72.4642C130.755 72.2825 130.678 72.2252 130.315 72.2252H128.489V73.0665Z" stroke="#F7931E" stroke-width="0.4"/>
<path d="M143.193 80.8679C143.193 81.5276 142.61 81.8526 142.027 81.8526C141.444 81.8526 140.86 81.5276 140.86 80.8679V77.3783H137.772C137.17 77.3783 136.845 76.8716 136.845 76.3745C136.845 75.8773 137.17 75.3706 137.772 75.3706H140.86V72.0818C140.86 71.403 141.444 71.0779 142.027 71.0779C142.61 71.0779 143.193 71.403 143.193 72.0818V75.3706H147.734V71.795C147.734 71.1353 148.318 70.8102 148.901 70.8102C149.484 70.8102 150.067 71.1353 150.067 71.795V75.3706H153.576C154.197 75.3706 154.503 75.8677 154.503 76.3745C154.503 76.8812 154.197 77.3783 153.576 77.3783H150.067V77.9997C150.067 82.8756 147.84 86.0879 144.187 87.7323C144.006 87.8088 143.824 87.8471 143.642 87.8471C142.983 87.8471 142.514 87.3021 142.514 86.7189C142.514 86.3174 142.715 85.9158 143.26 85.6577C146.233 84.2332 147.734 82.0056 147.734 77.8276V77.3687H143.193V80.8583V80.8679Z" stroke="#F7931E" stroke-width="0.4"/>
<path d="M172.965 78.124C173.691 78.124 174.045 78.6881 174.045 79.2713C174.045 79.8545 173.682 80.4185 172.965 80.4185H158.308C157.582 80.4185 157.228 79.8354 157.228 79.2713C157.228 78.7072 157.591 78.124 158.308 78.124H172.965Z" stroke="#F7931E" stroke-width="0.4"/>
<path d="M182.276 77.8659C184.781 77.1584 187.353 76.1354 189.284 75.0169C189.523 74.8734 189.762 74.8161 189.963 74.8161C190.623 74.8161 191.13 75.361 191.13 75.9442C191.13 76.3075 190.929 76.6899 190.47 76.9481C188.137 78.2961 185.173 79.3956 182.276 80.0839V83.5735C182.276 84.7208 182.898 85.0171 185.307 85.0171C187.458 85.0171 189.523 84.8546 191.206 84.4722C191.302 84.4531 191.407 84.4339 191.512 84.4339C192.21 84.4339 192.64 85.0171 192.64 85.5812C192.64 86.0401 192.363 86.499 191.713 86.6424C189.868 87.044 187.621 87.1874 185.431 87.1874C181.253 87.1874 179.915 86.3843 179.915 83.8986V72.3973C179.915 71.7376 180.517 71.3934 181.101 71.3934C181.684 71.3934 182.286 71.7376 182.286 72.3973V77.8754L182.276 77.8659ZM189.925 72.12C189.925 71.7185 190.326 71.3552 190.766 71.3552C190.948 71.3552 191.149 71.4125 191.33 71.5751C191.875 72.0531 192.478 72.7032 192.898 73.3246C193.042 73.5063 193.08 73.6879 193.08 73.8696C193.08 74.3094 192.697 74.6727 192.277 74.6727C192.038 74.6727 191.799 74.5484 191.617 74.2902C191.139 73.6306 190.594 73.0474 190.135 72.5885C189.992 72.426 189.934 72.2634 189.934 72.1296L189.925 72.12ZM191.913 70.5139C191.913 70.1123 192.296 69.7681 192.755 69.7681C192.956 69.7681 193.156 69.8446 193.357 70.0071C193.873 70.4469 194.485 71.0684 194.906 71.6515C195.068 71.8523 195.126 72.0531 195.126 72.2539C195.126 72.6936 194.743 73.0187 194.323 73.0187C194.084 73.0187 193.816 72.9135 193.615 72.6554C193.156 72.0722 192.592 71.4699 192.133 70.9919C191.971 70.8293 191.913 70.6668 191.913 70.5139Z" stroke="#F7931E" stroke-width="0.4"/>
<path d="M208.463 72.4833C210.031 72.4451 210.834 73.1239 210.834 74.2042C210.834 74.5293 210.757 74.883 210.614 75.2845C209.992 76.9481 209.027 78.5734 207.86 80.0839C209.725 81.3459 211.818 83.1911 213.243 84.8451C213.501 85.1414 213.625 85.4665 213.625 85.7437C213.625 86.4034 213.004 86.9484 212.344 86.9484C212.019 86.9484 211.665 86.805 211.379 86.4703C210.136 84.9598 208.291 83.1337 206.436 81.757C204.486 83.8699 202.162 85.6099 199.896 86.738C199.696 86.8432 199.495 86.8814 199.313 86.8814C198.634 86.8814 198.147 86.2982 198.147 85.7151C198.147 85.3135 198.348 84.9311 198.826 84.6921C203.004 82.5792 206.512 79.1757 208.099 75.275C208.157 75.1507 208.176 75.036 208.176 74.9499C208.176 74.7683 208.013 74.6918 207.679 74.6918L200.489 74.8352C199.83 74.8352 199.485 74.2903 199.485 73.7549C199.485 73.2195 199.83 72.6267 200.47 72.6267L208.463 72.4833Z" stroke="#F7931E" stroke-width="0.4"/>
<path d="M38.0084 78.8028C37.865 79.0227 37.7312 79.2426 37.5878 79.4625C37.3297 79.864 36.9664 80.0266 36.6222 80.0266C36.0581 80.0266 35.561 79.6059 35.561 79.0227C35.561 78.8028 35.6183 78.5829 35.7809 78.3439C37.0906 76.3744 38.2092 73.4872 38.8307 70.7529C38.9549 70.2366 39.433 69.9689 39.911 69.9689C40.4942 69.9689 41.0774 70.3322 41.0774 70.9919C41.0774 71.0684 41.0583 71.1735 41.0391 71.2691C40.6567 72.8944 40.0353 74.6631 39.2896 76.3075C39.7485 76.3649 40.15 76.6517 40.15 77.1106V87.7706C40.15 88.3155 39.6051 88.5736 39.0888 88.5736C38.5725 88.5736 38.0084 88.3155 38.0084 87.7706V78.8028ZM48.5632 85.7915V87.675C48.5632 88.2581 48.0374 88.5354 47.502 88.5354C46.9666 88.5354 46.4408 88.2581 46.4408 87.675V85.7915L46.5173 83.1433C45.3509 84.5869 43.8882 85.9349 42.4063 86.8814C42.1864 87.0248 41.9665 87.0822 41.7657 87.0822C41.2017 87.0822 40.7619 86.6042 40.7619 86.0784C40.7619 85.7724 40.9244 85.4569 41.3068 85.237C42.8174 84.3288 44.414 82.9329 45.5804 81.3841H42.1864C41.6892 81.3841 41.4215 80.9061 41.4215 80.4377C41.4215 79.9692 41.6797 79.4912 42.1864 79.4912H46.4408V78.5256C46.4408 77.9615 46.9858 77.6842 47.502 77.6842C48.0183 77.6842 48.5632 77.9615 48.5632 78.5256V79.4912H53.0758C53.6016 79.4912 53.8598 79.9501 53.8598 80.4377C53.8598 80.9252 53.6016 81.3841 53.0758 81.3841H49.3663C50.5518 82.6652 52.2154 83.9177 53.8215 84.7972C54.2804 85.0554 54.4621 85.4187 54.4621 85.782C54.4621 86.3269 54.0223 86.8432 53.4391 86.8432C53.2575 86.8432 53.0567 86.7858 52.8559 86.6615C51.1924 85.6959 49.6627 84.3957 48.4772 83.0286L48.5537 85.8011L48.5632 85.7915ZM45.0545 77.2636C43.4101 77.2636 42.6835 76.5848 42.6835 75.1985V72.6458C42.6835 71.2596 43.4101 70.5808 45.0545 70.5808H50.0738C51.7182 70.5808 52.4448 71.2596 52.4448 72.6458V75.1985C52.4066 76.7855 51.5174 77.2444 50.0738 77.2636H45.0545ZM49.6723 75.4088C50.179 75.4088 50.3128 75.2654 50.3128 74.73V73.1047C50.3128 72.5598 50.1694 72.426 49.6723 72.426H45.4561C44.9589 72.426 44.8155 72.5694 44.8155 72.9709V74.8734C44.8155 75.3323 45.0354 75.4184 45.4561 75.4184H49.6723V75.4088Z" fill="#F7931E"/>
<path d="M64.0895 70.4947C64.0895 69.9115 64.6345 69.6343 65.1985 69.6343C65.7626 69.6343 66.2789 69.9115 66.2789 70.4947V71.5559H73.5066C73.9846 71.5559 74.2332 71.9766 74.2332 72.4164C74.2332 72.8562 73.9942 73.2768 73.5066 73.2768H69.453C70.5811 74.0608 71.7188 74.9977 72.6271 75.906C72.8852 76.1641 72.9904 76.4509 72.9904 76.7091C72.9904 77.254 72.5314 77.6938 71.9865 77.6938C71.7284 77.6938 71.4224 77.5886 71.1643 77.3114C70.8201 76.9672 70.4186 76.5657 69.9979 76.1832C66.0877 76.7091 61.7472 77.0054 57.9326 77.0628C57.3302 77.0819 57.0339 76.6039 57.0339 76.1354C57.0339 75.667 57.3111 75.2559 57.8943 75.2559C58.9173 75.2559 59.9785 75.2367 61.0302 75.1985C61.4508 74.5771 61.8141 73.9365 62.1583 73.2673H57.0147C56.5367 73.2673 56.269 72.8275 56.269 72.4068C56.269 71.9862 56.5272 71.5464 57.0147 71.5464H64.0991V70.4852L64.0895 70.4947ZM68.5256 77.799C70.5524 77.799 71.279 78.4204 71.279 79.9309V86.3174C71.279 87.8662 70.5524 88.5641 68.9463 88.5641C68.5638 88.5641 68.038 88.545 67.6173 88.5067C66.9959 88.4302 66.7187 87.9904 66.7187 87.522C66.7187 86.9962 67.1011 86.4608 67.7799 86.5373C68.1049 86.5755 68.4204 86.5946 68.6594 86.5946C68.9654 86.5946 69.1183 86.4703 69.1183 86.0305V85.1032H61.5464V87.8948C61.5464 88.4111 61.0015 88.6979 60.4852 88.6979C59.9689 88.6979 59.4049 88.4207 59.4049 87.8948V79.9214C59.4049 78.4204 60.1506 77.7894 62.1583 77.7894H68.5256V77.799ZM62.4356 79.5294C61.709 79.5294 61.556 79.6728 61.556 80.17V80.6958H69.1279V80.17C69.1279 79.6633 68.9654 79.5294 68.2483 79.5294H62.4451H62.4356ZM69.1279 82.3019H61.556V83.5066H69.1279V82.3019ZM64.4241 73.2864C64.0991 73.9078 63.7645 74.5101 63.382 75.1125C65.0456 75.0073 66.6995 74.8926 68.3439 74.7492C68.2005 74.6249 68.0667 74.5293 67.9233 74.4241C67.6843 74.2424 67.56 74.0226 67.56 73.8027C67.56 73.621 67.6365 73.4202 67.7799 73.2864H64.4241Z" fill="#F7931E"/>
<path d="M93.4785 76.9003C94.0617 76.9003 94.3581 77.4165 94.3581 77.9424C94.3581 78.4682 94.0521 78.9844 93.4785 78.9844H86.4133V85.3709H92.6946C93.2777 85.3709 93.5741 85.8967 93.5741 86.413C93.5741 86.9292 93.2777 87.4551 92.6946 87.4551H78.1052C77.5412 87.4551 77.2448 86.9388 77.2448 86.413C77.2448 85.8871 77.5412 85.3709 78.1052 85.3709H84.1283V78.9844H77.1874C76.6233 78.9844 76.327 78.4586 76.327 77.9424C76.327 77.4261 76.6329 76.9003 77.1874 76.9003H84.1283V71.1544C84.1283 70.5521 84.7115 70.2557 85.2756 70.2557C85.8397 70.2557 86.4229 70.5616 86.4229 71.1544V76.9003H93.4881H93.4785Z" fill="#F7931E"/>
<path d="M99.6068 76.8333C99.8458 77.1106 99.951 77.3783 99.951 77.6364C99.951 78.2387 99.406 78.7167 98.8515 78.7167C98.5742 78.7167 98.2874 78.5925 98.0675 78.3534C97.5895 77.8276 96.882 77.1871 96.4422 76.8238C96.165 76.5848 96.0407 76.3266 96.0407 76.0589C96.0407 75.5331 96.557 75.0551 97.1689 75.0551C97.3887 75.0551 97.6469 75.1316 97.8668 75.2941C98.4691 75.7148 99.1479 76.2979 99.6163 76.8238L99.6068 76.8333ZM99.7597 80.648C100.343 80.648 100.926 81.0304 100.926 81.6518C100.926 81.7283 100.907 81.8335 100.888 81.9291C100.41 83.8125 99.5685 85.9636 98.7846 87.3499C98.5073 87.8279 98.0771 88.0287 97.6756 88.0287C97.1115 88.0287 96.5761 87.6271 96.5761 87.0439C96.5761 86.8623 96.6335 86.6615 96.7577 86.4416C97.5226 85.0936 98.2587 83.1528 98.7463 81.3841C98.9089 80.8583 99.3295 80.6384 99.7693 80.6384L99.7597 80.648ZM100.869 72.0053C101.089 72.2634 101.194 72.5502 101.194 72.7892C101.194 73.3915 100.668 73.8505 100.113 73.8505C99.8362 73.8505 99.5494 73.7262 99.3104 73.4489C98.8324 72.9422 98.2301 72.3399 97.7807 71.967C97.5035 71.728 97.3792 71.4699 97.3792 71.2213C97.3792 70.6955 97.905 70.2557 98.4786 70.2557C98.7368 70.2557 98.9853 70.3131 99.2244 70.4947C99.7884 70.9154 100.41 71.4794 100.869 72.0053ZM104.626 77.6364C104.626 81.4319 103.804 84.7016 102.456 87.0535C102.179 87.5315 101.777 87.7323 101.375 87.7323C100.859 87.7323 100.372 87.3499 100.372 86.7667C100.372 86.5468 100.429 86.3269 100.572 86.0592C101.834 83.889 102.542 81.1642 102.542 77.4261V72.5311C102.542 71.9479 103.058 71.6515 103.584 71.6515C103.88 71.6515 104.186 71.7567 104.387 71.9479C106.758 71.5273 109.043 70.9441 110.726 70.3035C110.869 70.2461 111.003 70.227 111.127 70.227C111.749 70.227 112.188 70.8102 112.188 71.3552C112.188 71.7376 111.988 72.1009 111.51 72.2538C109.626 72.9135 106.997 73.5541 104.626 73.9365V75.667C107.131 75.2845 109.942 74.6631 111.949 74.0034C112.074 73.9652 112.208 73.9461 112.313 73.9461C112.934 73.9461 113.355 74.491 113.355 75.0073C113.355 75.3706 113.135 75.7339 112.628 75.8868C112.169 76.0302 111.682 76.1641 111.185 76.2884C111.29 77.1488 111.404 77.9997 111.586 78.841C112.007 78.5638 112.447 78.2196 112.896 77.8563C113.097 77.6747 113.317 77.6173 113.536 77.6173C114.081 77.6173 114.54 78.0762 114.54 78.602C114.54 78.8793 114.397 79.1661 114.101 79.4051C113.441 79.9023 112.772 80.3707 112.074 80.7723C112.619 82.5792 113.355 84.1854 114.282 85.5334C114.502 85.8393 114.588 86.1166 114.588 86.3747C114.588 87.0153 114.043 87.455 113.46 87.455C113.097 87.455 112.714 87.2734 112.456 86.8527C110.85 84.2427 109.722 80.648 109.301 76.7377C108.938 76.8333 108.555 76.9003 108.173 76.9767V87.4933C108.173 88.0765 107.647 88.3537 107.112 88.3537C106.576 88.3537 106.051 88.0765 106.051 87.4933V77.3783C105.573 77.4548 105.104 77.5408 104.626 77.5982V77.6364Z" fill="#F7931E"/>
<path d="M120.764 84.281C122.007 85.5238 123.957 86.0019 128.527 86.0019C130.64 86.0019 132.399 85.9445 133.929 85.782C134.675 85.7246 135.028 86.26 135.028 86.805C135.028 87.3117 134.732 87.8088 134.063 87.8471C132.476 87.9713 130.707 88.0287 128.585 88.0287C123.623 88.0287 121.462 87.4455 119.913 85.9828C119.254 86.7094 118.489 87.4646 117.743 88.0287C117.504 88.1912 117.284 88.2677 117.045 88.2677C116.462 88.2677 115.984 87.7897 115.984 87.2447C115.984 86.9197 116.146 86.5851 116.567 86.2983C117.265 85.8011 118.011 85.151 118.651 84.4722V80.7436C118.651 80.3803 118.594 80.2656 118.068 80.2656H117.103C116.519 80.2656 116.223 79.7589 116.223 79.2808C116.223 78.8028 116.529 78.2961 117.103 78.2961H118.546C120.133 78.2961 120.755 79.0036 120.755 80.4281V84.281H120.764ZM120.525 72.7223C120.745 72.9805 120.85 73.2673 120.85 73.5063C120.85 74.1277 120.286 74.6344 119.703 74.6344C119.407 74.6344 119.082 74.491 118.823 74.1755C118.403 73.6497 117.982 73.229 117.418 72.751C117.141 72.512 117.036 72.2252 117.036 71.9671C117.036 71.4221 117.514 70.9441 118.145 70.9441C118.384 70.9441 118.642 71.0206 118.909 71.2022C119.55 71.6611 120.095 72.2061 120.535 72.7319L120.525 72.7223ZM124.435 74.3667C123.011 74.3667 122.504 73.927 122.504 72.9996V72.273C122.504 71.3552 123.011 70.9058 124.435 70.9058H126.443V70.5234C126.443 69.9785 126.969 69.7203 127.466 69.7203C127.963 69.7203 128.489 69.9785 128.489 70.5234V70.9058H130.803C132.227 70.9058 132.734 71.3456 132.734 72.273V72.9996C132.734 73.927 132.227 74.3667 130.803 74.3667H128.489V74.9882H134.254C134.675 74.9882 134.895 75.3706 134.895 75.753C134.895 76.1354 134.675 76.5179 134.254 76.5179H121.367C120.946 76.5179 120.745 76.1354 120.745 75.753C120.745 75.3706 120.946 74.9882 121.367 74.9882H126.443V74.3667H124.435ZM124.942 80.734V81.4798H130.822C132.39 81.4798 132.83 81.9004 132.83 82.8278V83.7934C132.83 84.7208 132.285 85.1797 130.822 85.1797H125C123.432 85.1797 122.887 84.673 122.887 83.6118V78.7168C122.887 77.6556 123.432 77.1488 125 77.1488H129.981C131.548 77.1488 131.988 77.5695 131.988 78.4969V79.4051C131.969 80.6289 130.984 80.7245 129.981 80.7532H124.942V80.734ZM126.443 73.0665V72.2252H124.913C124.55 72.2252 124.474 72.2825 124.474 72.4642V72.8275C124.474 73.0665 124.713 73.0665 124.913 73.0665H126.443ZM129.512 79.3669C129.895 79.3669 129.971 79.3095 129.971 79.1088V78.7646C129.971 78.5638 129.895 78.5064 129.512 78.5064H125.401C125.038 78.5064 124.942 78.602 124.942 78.8506V79.3764H129.522L129.512 79.3669ZM124.942 82.8374V83.4205C124.942 83.6596 125.038 83.7647 125.401 83.7647H130.315C130.698 83.7647 130.774 83.7074 130.774 83.5066V83.105C130.774 82.8469 130.516 82.8469 130.315 82.8469H124.933L124.942 82.8374ZM128.489 73.0665H130.315C130.678 73.0665 130.755 73.0092 130.755 72.8275V72.4642C130.755 72.2825 130.678 72.2252 130.315 72.2252H128.489V73.0665Z" fill="#F7931E"/>
<path d="M143.193 80.8679C143.193 81.5276 142.61 81.8526 142.027 81.8526C141.444 81.8526 140.86 81.5276 140.86 80.8679V77.3783H137.772C137.17 77.3783 136.845 76.8716 136.845 76.3745C136.845 75.8773 137.17 75.3706 137.772 75.3706H140.86V72.0818C140.86 71.403 141.444 71.0779 142.027 71.0779C142.61 71.0779 143.193 71.403 143.193 72.0818V75.3706H147.734V71.795C147.734 71.1353 148.318 70.8102 148.901 70.8102C149.484 70.8102 150.067 71.1353 150.067 71.795V75.3706H153.576C154.197 75.3706 154.503 75.8677 154.503 76.3745C154.503 76.8812 154.197 77.3783 153.576 77.3783H150.067V77.9997C150.067 82.8756 147.84 86.0879 144.187 87.7323C144.006 87.8088 143.824 87.8471 143.642 87.8471C142.983 87.8471 142.514 87.3021 142.514 86.7189C142.514 86.3174 142.715 85.9158 143.26 85.6577C146.233 84.2332 147.734 82.0056 147.734 77.8276V77.3687H143.193V80.8583V80.8679Z" fill="#F7931E"/>
<path d="M172.965 78.124C173.691 78.124 174.045 78.6881 174.045 79.2713C174.045 79.8545 173.682 80.4185 172.965 80.4185H158.308C157.582 80.4185 157.228 79.8354 157.228 79.2713C157.228 78.7072 157.591 78.124 158.308 78.124H172.965Z" fill="#F7931E"/>
<path d="M182.276 77.8659C184.781 77.1584 187.353 76.1354 189.284 75.0169C189.523 74.8734 189.762 74.8161 189.963 74.8161C190.623 74.8161 191.13 75.361 191.13 75.9442C191.13 76.3075 190.929 76.6899 190.47 76.9481C188.137 78.2961 185.173 79.3956 182.276 80.0839V83.5735C182.276 84.7208 182.898 85.0171 185.307 85.0171C187.458 85.0171 189.523 84.8546 191.206 84.4722C191.302 84.4531 191.407 84.4339 191.512 84.4339C192.21 84.4339 192.64 85.0171 192.64 85.5812C192.64 86.0401 192.363 86.499 191.713 86.6424C189.868 87.044 187.621 87.1874 185.431 87.1874C181.253 87.1874 179.915 86.3843 179.915 83.8986V72.3973C179.915 71.7376 180.517 71.3934 181.101 71.3934C181.684 71.3934 182.286 71.7376 182.286 72.3973V77.8754L182.276 77.8659ZM189.925 72.12C189.925 71.7185 190.326 71.3552 190.766 71.3552C190.948 71.3552 191.149 71.4125 191.33 71.5751C191.875 72.0531 192.478 72.7032 192.898 73.3246C193.042 73.5063 193.08 73.6879 193.08 73.8696C193.08 74.3094 192.697 74.6727 192.277 74.6727C192.038 74.6727 191.799 74.5484 191.617 74.2902C191.139 73.6306 190.594 73.0474 190.135 72.5885C189.992 72.426 189.934 72.2634 189.934 72.1296L189.925 72.12ZM191.913 70.5139C191.913 70.1123 192.296 69.7681 192.755 69.7681C192.956 69.7681 193.156 69.8446 193.357 70.0071C193.873 70.4469 194.485 71.0684 194.906 71.6515C195.068 71.8523 195.126 72.0531 195.126 72.2539C195.126 72.6936 194.743 73.0187 194.323 73.0187C194.084 73.0187 193.816 72.9135 193.615 72.6554C193.156 72.0722 192.592 71.4699 192.133 70.9919C191.971 70.8293 191.913 70.6668 191.913 70.5139Z" fill="#F7931E"/>
<path d="M208.463 72.4833C210.031 72.4451 210.834 73.1239 210.834 74.2042C210.834 74.5293 210.757 74.883 210.614 75.2845C209.992 76.9481 209.027 78.5734 207.86 80.0839C209.725 81.3459 211.818 83.1911 213.243 84.8451C213.501 85.1414 213.625 85.4665 213.625 85.7437C213.625 86.4034 213.004 86.9484 212.344 86.9484C212.019 86.9484 211.665 86.805 211.379 86.4703C210.136 84.9598 208.291 83.1337 206.436 81.757C204.486 83.8699 202.162 85.6099 199.896 86.738C199.696 86.8432 199.495 86.8814 199.313 86.8814C198.634 86.8814 198.147 86.2982 198.147 85.7151C198.147 85.3135 198.348 84.9311 198.826 84.6921C203.004 82.5792 206.512 79.1757 208.099 75.275C208.157 75.1507 208.176 75.036 208.176 74.9499C208.176 74.7683 208.013 74.6918 207.679 74.6918L200.489 74.8352C199.83 74.8352 199.485 74.2903 199.485 73.7549C199.485 73.2195 199.83 72.6267 200.47 72.6267L208.463 72.4833Z" fill="#F7931E"/>
</g>
<defs>
<clipPath id="clip0_16_1670">
<rect width="251" height="89" fill="white"/>
</clipPath>
</defs>
</svg>
