<svg version="1.1" xmlns="http://www.w3.org/2000/svg" xmlns:xlink="http://www.w3.org/1999/xlink" x="0px" y="0px" viewBox="0 0 820.2 820.2">
<style type="text/css">.st0{fill:#EEEEEE;}</style>
<path class="st0" d="M769.5,630c-8.1-8-17.7-13.2-27.3-16.6c-14.4-5.2-29-6.8-40.1-7.3c-6.1-0.3-12.1-0.3-18.2,0.1
	c-2,0-4.1-0.3-6-0.8l-0.8-0.3l-0.1-0.5l0.1-3.2l0-0.4l0-0.1c0.1-0.3,1.2-9.3,13.6-21.7l101.4-101.4c37.4-37.4,37.4-98,0-135.4
	L690.7,240.9c-7.1-7.1-10.4-13.1-12.1-17c-0.6-1.3-1-2.7-1.4-4.1l-0.1-0.5l0-0.1l0-0.4c-0.2-1.2-0.2-2.5-0.1-3.7
	c0.5-0.3,2.7-1,6.8-1.1c10.1,0.6,20.3,0.3,30.3-0.9c9.5-1,18.9-3.2,28-6.3c9.6-3.5,19.2-8.6,27.3-16.6c38.5-38.5,38.5-101,0-139.5
	C731,12.2,668.6,12.2,630,50.7c-8.1,8.1-13.2,17.7-16.6,27.3c-5.2,14.4-6.8,29-7.3,40.1c-0.3,6.1-0.3,12.2,0.1,18.3c0,2-0.3,4-0.8,6
	l-0.3,0.8c-1.2,0.2-2.5,0.2-3.7-0.1l-0.4-0.1l-0.1,0c-0.7-0.2-9.5-1.6-21.6-13.6L477.8,28c-37.4-37.4-98-37.4-135.4,0L241,129.5
	c-19.7,19.6-22.1,37.5-22.2,40.2l0.1,0c-0.6,4.7-0.4,9.4,0.6,14c1.2,5.2,3.9,9.9,7.6,13.7c3.7,3.6,8.2,6.3,13.2,7.8
	c4.8,1.4,9.8,2.2,14.8,2.2h0.8l0.7-0.1l0,0c8.9-0.6,17.9-0.3,26.7,0.8c7,0.9,14,2.5,20.6,4.9c6.5,2.4,11.9,5.6,15.7,9.4
	c27,26.8,27.1,70.4,0.4,97.4c-26.8,27-70.4,27.1-97.4,0.4c-0.1-0.1-0.2-0.2-0.4-0.4c-3.9-3.9-7.2-9.6-9.7-16.4
	c-3.7-10-5.2-22.1-5.6-31.4c-0.2-4.7-0.2-8.6-0.1-11.4l0.1-3.1l0.1-0.8l0-0.1l0.1-0.7l0-0.8c0-5-0.7-10-2.2-14.8
	c-1.5-5-4.1-9.5-7.8-13.2c-3.8-3.8-8.5-6.4-13.7-7.6c-4.6-1.1-9.3-1.3-14-0.7v0c-0.2,0-0.5,0.1-0.7,0.1c0,0-0.1,0-0.1,0
	c-4.2,0.4-21,3.6-39.4,22.1L28.1,342.4c-37.4,37.4-37.4,98,0,135.4c0,0,0,0,0,0l101.4,101.4c18.4,18.5,35.1,21.7,39.4,22.1v0
	c0.1,0,0.2,0,0.3,0c0.2,0,0.4,0,0.6,0.1l0-0.1c4.7,0.6,9.4,0.4,14-0.6c5.2-1.2,9.9-3.8,13.7-7.6c3.6-3.7,6.3-8.2,7.8-13.2
	c1.4-4.8,2.1-9.8,2.2-14.8l0-0.8l-0.1-0.7v0c-0.6-8.9-0.3-17.9,0.9-26.7c0.8-7,2.4-14,4.8-20.7c2.4-6.4,5.6-11.9,9.4-15.7
	c26.8-27,70.4-27.2,97.4-0.4c27,26.8,27.2,70.4,0.4,97.4c-0.1,0.1-0.2,0.2-0.4,0.4c-3.9,3.9-9.6,7.2-16.4,9.7
	c-10,3.7-22.1,5.2-31.4,5.6c-4.7,0.2-8.6,0.2-11.4,0.1l-3.2-0.1l-0.7-0.1l-0.1,0l-0.8-0.1H255c-5,0-10,0.8-14.8,2.2
	c-5,1.5-9.5,4.1-13.2,7.8c-3.7,3.8-6.4,8.5-7.6,13.7c-1.1,4.6-1.3,9.3-0.6,14l-0.1,0c0,0.2,0,0.4,0.1,0.6c0,0.1,0,0.2,0,0.3l0,0
	c0.4,4.3,3.6,21,22.1,39.4l101.4,101.4c37.4,37.4,98,37.4,135.4,0c0,0,0,0,0,0l101.4-101.4c7.1-7.1,13.1-10.4,17-12.1
	c1.3-0.6,2.7-1.1,4.1-1.4l0.5-0.1l0.1,0l0.5-0.1c1.2-0.2,2.5-0.2,3.7,0l0.5,1.2c0.4,1.8,0.6,3.6,0.6,5.5
	c-0.6,10.2-0.3,20.3,0.9,30.5c1.1,9.5,3.2,18.9,6.3,28c3.5,9.6,8.6,19.2,16.6,27.3c38.5,38.5,101,38.5,139.5,0
	C808,731,808,668.5,769.5,630L769.5,630z"/>
</svg>
