<svg width="24" height="25" viewBox="0 0 24 25" fill="none" xmlns="http://www.w3.org/2000/svg">
<g clip-path="url(#clip0_16_1825)">
<path d="M17.1407 9.94367C17.2184 4.85107 23.555 1.97439 23.555 1.97439L22.4474 0.225098C22.4474 0.225098 14.7304 3.72388 13.2921 9.94367C12.4368 15.6193 15.7921 18.1694 18.1593 18.4287C25.7619 18.9816 26.4702 9.08094 17.1407 9.94367Z" fill="#FF7535"/>
<path d="M3.9848 9.94367C4.06254 4.85107 10.3991 1.97439 10.3991 1.97439L9.29158 0.225098C9.29158 0.225098 1.57454 3.72388 0.136202 9.94367C-0.719109 15.6193 2.63622 18.1694 5.0034 18.4287C12.606 18.9816 13.3143 9.08094 3.9848 9.94367Z" fill="#FF7535"/>
</g>
<defs>
<clipPath id="clip0_16_1825">
<rect width="24" height="24" fill="white" transform="translate(0 0.125)"/>
</clipPath>
</defs>
</svg>
