<?xml version="1.0" standalone="no"?>
<!DOCTYPE svg PUBLIC "-//W3C//DTD SVG 20010904//EN"
 "http://www.w3.org/TR/2001/REC-SVG-20010904/DTD/svg10.dtd">
<svg version="1.0" xmlns="http://www.w3.org/2000/svg"
 width="260.000000pt" height="260.000000pt" viewBox="0 0 260.000000 260.000000"
 preserveAspectRatio="xMidYMid meet">
<metadata>
Created by potrace 1.11, written by Peter Selinger 2001-2013
</metadata>
<g transform="translate(0.000000,260.000000) scale(0.100000,-0.100000)"
fill="#000000" stroke="none">
<path d="M1220 2591 c-69 -22 -121 -65 -306 -253 -217 -219 -238 -249 -218
-319 15 -53 51 -71 156 -79 105 -8 145 -24 182 -73 92 -121 26 -297 -128 -338
-80 -22 -186 23 -222 94 -10 18 -20 71 -24 125 -8 105 -26 141 -79 156 -70 20
-100 -1 -319 -218 -243 -239 -257 -261 -257 -386 0 -125 14 -147 257 -386 219
-217 249 -238 319 -218 53 15 71 51 79 156 8 105 24 145 73 182 121 92 297 26
338 -128 22 -80 -23 -186 -94 -222 -18 -10 -71 -20 -125 -24 -105 -8 -141 -26
-156 -79 -20 -70 1 -100 218 -319 239 -243 261 -257 386 -257 70 0 93 4 130
24 27 14 126 104 246 222 127 125 208 199 221 199 18 0 21 -9 26 -84 7 -106
36 -175 90 -221 123 -105 312 -98 426 16 114 114 121 303 16 426 -46 54 -115
83 -221 90 -75 5 -84 8 -84 26 0 13 74 94 199 221 118 120 208 219 222 246 34
65 34 195 0 260 -14 27 -104 126 -222 246 -125 127 -199 208 -199 221 0 18 9
21 84 26 140 10 211 52 268 160 19 35 23 58 23 132 0 105 -20 158 -86 224
-114 114 -303 121 -426 16 -54 -46 -83 -115 -90 -221 -5 -75 -8 -84 -26 -84
-13 0 -94 74 -221 199 -125 124 -218 207 -246 221 -48 25 -164 36 -210 21z"/>
</g>
</svg>
